<?xml version="1.0" ?><svg height="32px" version="1.1" viewBox="0 0 32 32" width="32px" xmlns="http://www.w3.org/2000/svg" xmlns:xlink="http://www.w3.org/1999/xlink"><title/><desc/><defs/><g fill="none" fill-rule="evenodd" id="Page-1" stroke="none" stroke-width="1"><g id="letter-R"><g id="Page-1" transform="translate(4.000000, 2.000000)"><path d="M11.223,4.6878 L6.077,4.6878 L6.077,12.2558 L11.073,12.2558 C12.412,12.2558 13.539,12.1398 14.453,11.9088 C15.367,11.6768 16.065,11.2828 16.547,10.7258 C17.029,10.1678 17.27,9.4018 17.27,8.4248 C17.27,7.6608 17.076,6.9878 16.688,6.4058 C16.3,5.8238 15.761,5.3888 15.073,5.1008 C14.422,4.8258 13.138,4.6878 11.223,4.6878 M8.031,16.2558 L6.077,16.2558 L6.077,25.1008 C6.077,26.2648 5.821,27.1228 5.308,27.6738 C4.794,28.2248 4.124,28.4998 3.298,28.4998 C2.409,28.4998 1.721,28.2118 1.232,27.6358 C0.744,27.0598 0.5,26.2148 0.5,25.1008 L0.5,3.9178 C0.5,2.7158 0.769,1.8458 1.308,1.3078 C1.846,0.7688 2.716,0.4998 3.918,0.4998 L12.988,0.4998 C14.24,0.4998 15.311,0.5528 16.2,0.6598 C17.088,0.7658 17.89,0.9818 18.603,1.3078 C19.467,1.6708 20.231,2.1898 20.894,2.8658 C21.558,3.5418 22.062,4.3278 22.406,5.2228 C22.75,6.1178 22.923,7.0668 22.923,8.0678 C22.923,10.1208 22.343,11.7618 21.185,12.9878 C20.027,14.2148 18.272,15.0858 15.918,15.5988 C16.907,16.1248 17.852,16.9008 18.754,17.9268 C19.655,18.9538 20.459,20.0458 21.167,21.2038 C21.874,22.3618 22.425,23.4078 22.819,24.3408 C23.214,25.2728 23.411,25.9148 23.411,26.2648 C23.411,26.6288 23.295,26.9878 23.063,27.3448 C22.832,27.7018 22.516,27.9838 22.115,28.1898 C21.714,28.3968 21.251,28.4998 20.725,28.4998 C20.099,28.4998 19.574,28.3528 19.148,28.0588 C18.722,27.7648 18.356,27.3918 18.049,26.9418 C17.743,26.4908 17.326,25.8268 16.8,24.9508 L14.566,21.2328 C13.764,19.8678 13.048,18.8288 12.415,18.1148 C11.783,17.4018 11.142,16.9128 10.491,16.6498 C9.84,16.3878 9.02,16.2558 8.031,16.2558" fill="#F42F42" id="Fill-1"/><path d="M11.223,4.6878 L6.077,4.6878 L6.077,12.2558 L11.073,12.2558 C12.412,12.2558 13.539,12.1398 14.453,11.9088 C15.367,11.6768 16.065,11.2828 16.547,10.7258 C17.029,10.1678 17.27,9.4018 17.27,8.4248 C17.27,7.6608 17.076,6.9878 16.688,6.4058 C16.3,5.8238 15.761,5.3888 15.073,5.1008 C14.422,4.8258 13.138,4.6878 11.223,4.6878 L11.223,4.6878 Z M8.031,16.2558 L6.077,16.2558 L6.077,25.1008 C6.077,26.2648 5.821,27.1228 5.308,27.6738 C4.794,28.2248 4.124,28.4998 3.298,28.4998 C2.409,28.4998 1.721,28.2118 1.232,27.6358 C0.744,27.0598 0.5,26.2148 0.5,25.1008 L0.5,3.9178 C0.5,2.7158 0.769,1.8458 1.308,1.3078 C1.846,0.7688 2.716,0.4998 3.918,0.4998 L12.988,0.4998 C14.24,0.4998 15.311,0.5528 16.2,0.6598 C17.088,0.7658 17.89,0.9818 18.603,1.3078 C19.467,1.6708 20.231,2.1898 20.894,2.8658 C21.558,3.5418 22.062,4.3278 22.406,5.2228 C22.75,6.1178 22.923,7.0668 22.923,8.0678 C22.923,10.1208 22.343,11.7618 21.185,12.9878 C20.027,14.2148 18.272,15.0858 15.918,15.5988 C16.907,16.1248 17.852,16.9008 18.754,17.9268 C19.655,18.9538 20.459,20.0458 21.167,21.2038 C21.874,22.3618 22.425,23.4078 22.819,24.3408 C23.214,25.2728 23.411,25.9148 23.411,26.2648 C23.411,26.6288 23.295,26.9878 23.063,27.3448 C22.832,27.7018 22.516,27.9838 22.115,28.1898 C21.714,28.3968 21.251,28.4998 20.725,28.4998 C20.099,28.4998 19.574,28.3528 19.148,28.0588 C18.722,27.7648 18.356,27.3918 18.049,26.9418 C17.743,26.4908 17.326,25.8268 16.8,24.9508 L14.566,21.2328 C13.764,19.8678 13.048,18.8288 12.415,18.1148 C11.783,17.4018 11.142,16.9128 10.491,16.6498 C9.84,16.3878 9.02,16.2558 8.031,16.2558 L8.031,16.2558 Z" id="Stroke-3" stroke="#330910"/><path d="M22.8071,25.7421 C22.7641,25.8511 22.7171,25.9611 22.6441,26.0741 C22.4581,26.3591 22.2101,26.5791 21.8861,26.7461 C21.5591,26.9151 21.1691,27.0001 20.7251,27.0001 C20.1981,27.0001 19.7751,26.8841 19.4331,26.6471 C19.0591,26.3891 18.7331,26.0571 18.4631,25.6601 C18.1671,25.2261 17.7521,24.5651 17.2291,23.6931 L14.9941,19.9741 C14.1831,18.5931 13.7621,18.1601 13.1121,17.4251 C12.4301,16.6561 10.6771,16.1861 10.6771,16.1861 C11.0121,16.3211 11.3451,16.5101 11.6741,16.7501 C12.0521,17.0271 12.4251,17.3721 12.7901,17.7841 C13.4401,18.5181 14.1831,19.5931 14.9941,20.9741 L17.2291,24.6931 C17.7521,25.5651 18.1671,26.2261 18.4631,26.6601 C18.7331,27.0571 19.0591,27.3891 19.4331,27.6471 C19.7751,27.8841 20.1981,28.0001 20.7251,28.0001 C21.1691,28.0001 21.5591,27.9151 21.8861,27.7461 C22.2101,27.5791 22.4581,27.3591 22.6441,27.0741 C22.8231,26.7961 22.9101,26.5331 22.9101,26.2651 C22.9101,26.1841 22.8901,26.0271 22.8071,25.7421 M3.2981,27.0001 C2.5561,27.0001 2.0051,26.7751 1.6141,26.3131 C1.2061,25.8331 1.0001,25.0881 1.0001,24.1011 L1.0001,25.1011 C1.0001,26.0881 1.2061,26.8331 1.6141,27.3131 C2.0051,27.7751 2.5561,28.0001 3.2981,28.0001 C3.9861,28.0001 4.5231,27.7821 4.9421,27.3331 C5.3641,26.8791 5.5771,26.1291 5.5771,25.1011 L5.5771,24.1011 C5.5771,25.1291 5.3641,25.8791 4.9421,26.3331 C4.5231,26.7821 3.9861,27.0001 3.2981,27.0001" fill="#332E09" id="Fill-5" opacity="0.203766325"/><path d="M6.0775,2.1129 L13.2055,2.1129" id="Stroke-7" stroke="#FFFFFF" stroke-dasharray="1,2,6,2,3" stroke-linecap="round" stroke-linejoin="round"/></g></g></g></svg>